{"title":"Mirrors.2.2010.DVDRip.AC3.MultiSubs.5x.NLUPPER","uid":5866336,"size":1255729007,"categoryP":"video","categoryS":"movies","magnet":"?xt=urn:btih:7d4379315075737e7017d682c3f038c7c58ecbb2&amp;dn=Mirrors.2.2010.DVDRip.AC3.MultiSubs.5x.NLUPPER&amp;tr=udp%3A%2F%2Ftracker.openbittorrent.com%3A80&amp;tr=udp%3A%2F%2Fopen.demonii.com%3A1337&amp;tr=udp%3A%2F%2Ftracker.coppersurfer.tk%3A6969&amp;tr=udp%3A%2F%2Fexodus.desync.com%3A6969","seeders":0,"leechers":0,"uploader":"razvanripper","files":-1,"time":1286227170,"description":"Mirrors 2 (2010) DVDRip AC3 MultiSubs 5x\n\nRip from the Retail DVD9 External subs idx\n\n[IMG]http://img827.imageshack.us/img827/1953/frontql.jpg[/IMG]\n\nPLOT\n\nWhen Max, who is recovering from a traumatic accident, \ntakes a job as a nighttime security guard, \nhe begins to see visions of a young mysterious woman in the store's mirror. \n\n----------------------------------------------------------------------------\n &lt;a href=&quot;\nhttp://www.youtube.com/watch?v=SQDinAzvXnc&quot; rel=&quot;nofollow&quot; target=&quot;_NEW&quot;&gt;\nhttp://www.youtube.com/watch?v=SQDinAzvXnc&lt;/a&gt;\n\nMM:   &lt;a href=&quot; http://www.moviemeter.nl/film/68039&quot; rel=&quot;nofollow&quot; target=&quot;_NEW&quot;&gt; http://www.moviemeter.nl/film/68039&lt;/a&gt;\n\nIMDB:   &lt;a href=&quot; http://www.imdb.com/title/tt1576699/&quot; rel=&quot;nofollow&quot; target=&quot;_NEW&quot;&gt; http://www.imdb.com/title/tt1576699/&lt;/a&gt;\n\n-----------------------------------------------------------------------------\n\nINFO\n\n   Video #0\n      ID : 0\n      Format : MPEG-4 Visual\n      Format profile : AdvancedSimple@L5\n      Format settings, BVOP : Yes\n      Format settings, QPel : No\n      Format settings, GMC : No warppoints\n      Format settings, Matrix : Default (H.263)\n      Muxing mode : Packed bitstream\n      Codec ID : DX50\n      Codec ID/Hint : DivX 5\n      Duration : 1h 26mn\n      Bit rate : 1 462 Kbps\n      Width : 720 pixels\n      Height : 406 pixels\n      Display aspect ratio : 16:9\n      Frame rate : 25.000 fps\n      Resolution : 24 bits\n      Colorimetry : 4:2:0\n      Scan type : Progressive\n      Bits/(Pixel*Frame) : 0.200\n      Stream size : 902 MiB (76%)\n      Writing library : XviD 1.2.1 (UTC 2008-12-04)\n   Audio #1\n      ID : 1\n      Format : AC-3\n      Format/Info : Audio Coding 3\n      Codec ID : 2000\n      Duration : 1h 26mn\n      Bit rate mode : Constant\n      Bit rate : 448 Kbps\n      Channel(s) : 6 channels\n      Channel positions : Front: L C R, Surround: L R, LFE\n      Sampling rate : 48.0 KHz\n      Stream size : 277 MiB (23%)\n      Alignment : Aligned on interleaves\n      Interleave, duration : 32 ms (0.80 video frame)\n      Interleave, preload duration : 32 ms\n\n\nThanks To NLUPPER\n\nENJOY\n","torrent":{"xt":"urn:btih:7d4379315075737e7017d682c3f038c7c58ecbb2","amp;dn":"Mirrors.2.2010.DVDRip.AC3.MultiSubs.5x.NLUPPER","amp;tr":["udp%3A%2F%2Ftracker.openbittorrent.com%3A80","udp%3A%2F%2Fopen.demonii.com%3A1337","udp%3A%2F%2Ftracker.coppersurfer.tk%3A6969","udp%3A%2F%2Fexodus.desync.com%3A6969"],"infoHash":"7d4379315075737e7017d682c3f038c7c58ecbb2","infoHashBuffer":{"type":"Buffer","data":[125,67,121,49,80,117,115,126,112,23,214,130,195,240,56,199,197,142,203,178]},"announce":[],"urlList":[]}}